{
  "asset": {
    "version": "2.0"
  },
  "extensionsUsed": [
    "EXT_mesh_features",
    "EXT_structural_metadata"
  ],
  "buffers": [
    {
      "uri": "data:application/gltf-buffer;base64,",
      "byteLength": 23568
    }
  ],
  "bufferViews": [
    {
      "buffer": 0,
      "byteOffset": 0,
      "byteLength": 2520,
      "target": 34963
    },
    {
      "buffer": 0,
      "byteOffset": 2520,
      "byteLength": 10080,
      "target": 34962
    },
    {
      "buffer": 0,
      "byteOffset": 12600,
      "byteLength": 10080,
      "target": 34962
    },
    {
      "buffer": 0,
      "byteOffset": 22680,
      "byteLength": 840,
      "target": 34962
    },
    {
      "buffer": 0,
      "byteOffset": 23520,
      "byteLength": 48
    }
  ],
  "accessors": [
    {
      "bufferView": 0,
      "componentType": 5123,
      "count": 1260,
      "type": "SCALAR",
      "min": [
        0
      ],
      "max": [
        839
      ]
    },
    {
      "bufferView": 1,
      "componentType": 5126,
      "count": 840,
      "type": "VEC3",
      "min": [
        -3.3,
        -2.175,
        0
      ],
      "max": [
        3.3,
        1.8,
        3.15
      ]
    },
    {
      "bufferView": 2,
      "componentType": 5126,
      "count": 840,
      "type": "VEC3",
      "min": [
        -1,
        -1,
        -1
      ],
      "max": [
        1,
        1,
        1
      ]
    },
    {
      "bufferView": 3,
      "componentType": 5121,
      "count": 840,
      "type": "SCALAR",
      "min": [
        0
      ],
      "max": [
        3
      ]
    }
  ],
  "materials": [
    {
      "pbrMetallicRoughness": {
        "baseColorFactor": [
          0.82,
          0.86,
          0.9,
          1
        ],
        "metallicFactor": 0,
        "roughnessFactor": 0.72
      },
      "alphaMode": "OPAQUE",
      "doubleSided": false
    }
  ],
  "meshes": [
    {
      "primitives": [
        {
          "attributes": {
            "POSITION": 1,
            "NORMAL": 2,
            "_FEATURE_ID_0": 3
          },
          "indices": 0,
          "material": 0,
          "mode": 4,
          "extensions": {
            "EXT_mesh_features": {
              "featureIds": [
                {
                  "featureCount": 4,
                  "attribute": 0,
                  "propertyTable": 0
                }
              ]
            }
          }
        }
      ]
    }
  ],
  "nodes": [
    {
      "mesh": 0
    }
  ],
  "scenes": [
    {
      "nodes": [
        0
      ]
    }
  ],
  "scene": 0,
  "extensions": {
    "EXT_structural_metadata": {
      "schema": {
        "id": "FeatureIdAttributeAndPropertyTableSchema",
        "classes": {
          "exampleMetadataClass": {
            "name": "Example metadata class",
            "description": "Visible feature block metadata",
            "properties": {
              "example_VEC3_FLOAT32": {
                "name": "Feature signal vector",
                "description": "Per-feature vector used by the demo for color and tabular inspection",
                "type": "VEC3",
                "componentType": "FLOAT32"
              }
            }
          }
        }
      },
      "propertyTables": [
        {
          "name": "Feature block property table",
          "class": "exampleMetadataClass",
          "count": 4,
          "properties": {
            "example_VEC3_FLOAT32": {
              "values": 4
            }
          }
        }
      ]
    }
  }
}
