<?xml version="1.0" encoding="utf-8"?>
<!-- Generator: Adobe Illustrator 12.0.1, SVG Export Plug-In . SVG Version: 6.00 Build 51448)  -->
<!DOCTYPE svg PUBLIC "-//W3C//DTD SVG 1.1//EN" "http://www.w3.org/Graphics/SVG/1.1/DTD/svg11.dtd" [
	<!ENTITY ns_svg "http://www.w3.org/2000/svg">
	<!ENTITY ns_xlink "http://www.w3.org/1999/xlink">
	<!ENTITY st0 "opacity:0.7;fill:url(#XMLID_10_);">
	<!ENTITY st1 "opacity:0.7;fill:url(#XMLID_11_);">
	<!ENTITY st2 "opacity:0.7;fill:url(#XMLID_1_);">
	<!ENTITY st3 "opacity:0.7;fill:url(#XMLID_2_);">
	<!ENTITY st4 "opacity:0.7;fill:url(#XMLID_3_);">
	<!ENTITY st5 "opacity:0.7;fill:url(#XMLID_5_);">
	<!ENTITY st6 "fill:none;stroke:#000000;stroke-width:0.25;">
	<!ENTITY st7 "opacity:0.7;">
	<!ENTITY st8 "fill:none;">
	<!ENTITY st9 "fill:none;stroke:#000000;stroke-width:4;">
	<!ENTITY st10 "font-size:36;">
	<!ENTITY st11 "font-family:'Nimbus Roman No9 L',Times,serif;font-style:italic;">
]>
<svg  version="1.1" id="Layer_4" xmlns="&ns_svg;" xmlns:xlink="&ns_xlink;" width="487.4" height="487.4"
	 viewBox="0 0 487.4 487.4" style="overflow:visible;enable-background:new 0 0 487.4 487.4;" xml:space="preserve">
<g>
	<g>
		
			<radialGradient id="XMLID_13_" cx="244.3027" cy="214.1787" r="149.9758" gradientTransform="matrix(1.6296 -0.3743 0 1 -174.1228 92.9134)" gradientUnits="userSpaceOnUse">
			<stop  offset="0" style="stop-color:#F4FFF3"/>
			<stop  offset="1" style="stop-color:#5EBF53"/>
		</radialGradient>
		<polygon style="opacity:0.7;fill:url(#XMLID_13_);" points="241.5,245 333.7,190.3 333.7,332.1 241.5,386.8 		"/>
		<g style="&st7;">
			<line style="&st6;" x1="241.5" y1="363.1" x2="333.7" y2="308.4"/>
			<line style="&st6;" x1="241.5" y1="339.6" x2="333.7" y2="284.9"/>
			<line style="&st6;" x1="241.5" y1="315.9" x2="333.7" y2="261.2"/>
			<line style="&st6;" x1="241.5" y1="292.2" x2="333.7" y2="237.5"/>
			<line style="&st6;" x1="241.5" y1="268.7" x2="333.7" y2="214"/>
			<line style="&st6;" x1="241.5" y1="386.8" x2="333.7" y2="332.1"/>
			<line style="&st6;" x1="318.4" y1="199.5" x2="318.4" y2="341.2"/>
			<line style="&st6;" x1="303" y1="208.6" x2="303" y2="350.3"/>
			<line style="&st6;" x1="287.6" y1="217.7" x2="287.6" y2="359.4"/>
			<line style="&st6;" x1="272.2" y1="226.8" x2="272.2" y2="368.5"/>
			<line style="&st6;" x1="256.8" y1="235.9" x2="256.8" y2="377.7"/>
			<line style="&st6;" x1="333.7" y1="190.3" x2="333.7" y2="332.1"/>
		</g>
	</g>
	<g>
		<radialGradient id="XMLID_14_" cx="292.0811" cy="268.2959" r="142.2392" gradientUnits="userSpaceOnUse">
			<stop  offset="0" style="stop-color:#FFEEDE"/>
			<stop  offset="1" style="stop-color:#FF8E52"/>
		</radialGradient>
		<polygon style="opacity:0.7;fill:url(#XMLID_14_);" points="192,190.3 333.7,190.3 241.5,245 99.7,245 		"/>
		<g style="&st7;">
			<line style="&st6;" x1="192" y1="190.3" x2="333.7" y2="190.3"/>
			<line style="&st6;" x1="115.2" y1="235.9" x2="256.9" y2="235.9"/>
			<line style="&st6;" x1="130.5" y1="226.8" x2="272.2" y2="226.8"/>
			<line style="&st6;" x1="145.9" y1="217.7" x2="287.6" y2="217.7"/>
			<line style="&st6;" x1="161.3" y1="208.5" x2="303" y2="208.5"/>
			<line style="&st6;" x1="176.6" y1="199.4" x2="318.3" y2="199.4"/>
			<line style="&st6;" x1="192" y1="190.3" x2="99.7" y2="245"/>
			<line style="&st6;" x1="310.1" y1="190.3" x2="217.9" y2="245"/>
			<line style="&st6;" x1="286.5" y1="190.3" x2="194.2" y2="245"/>
			<line style="&st6;" x1="262.9" y1="190.3" x2="170.6" y2="245"/>
			<line style="&st6;" x1="239.3" y1="190.3" x2="147" y2="245"/>
			<line style="&st6;" x1="215.6" y1="190.3" x2="123.3" y2="245"/>
		</g>
	</g>
	<g>
		
			<radialGradient id="XMLID_15_" cx="244.3027" cy="214.1777" r="149.9765" gradientTransform="matrix(1.6296 -0.3743 0 1 -174.1228 92.9134)" gradientUnits="userSpaceOnUse">
			<stop  offset="0" style="stop-color:#F4FFF3"/>
			<stop  offset="1" style="stop-color:#5EBF53"/>
		</radialGradient>
		<polygon style="opacity:0.7;fill:url(#XMLID_15_);" points="241.5,103.3 333.7,48.6 333.7,190.3 241.5,245 		"/>
		<g style="&st7;">
			<line style="&st6;" x1="241.5" y1="103.3" x2="333.7" y2="48.6"/>
			<line style="&st6;" x1="241.5" y1="221.4" x2="333.7" y2="166.7"/>
			<line style="&st6;" x1="241.5" y1="197.8" x2="333.7" y2="143.2"/>
			<line style="&st6;" x1="241.5" y1="174.2" x2="333.7" y2="119.5"/>
			<line style="&st6;" x1="241.5" y1="150.5" x2="333.7" y2="95.8"/>
			<line style="&st6;" x1="241.5" y1="127" x2="333.7" y2="72.3"/>
			<line style="&st6;" x1="318.4" y1="57.7" x2="318.4" y2="199.5"/>
			<line style="&st6;" x1="303" y1="66.9" x2="303" y2="208.6"/>
			<line style="&st6;" x1="287.6" y1="76" x2="287.6" y2="217.7"/>
			<line style="&st6;" x1="272.2" y1="85.1" x2="272.2" y2="226.8"/>
			<line style="&st6;" x1="256.8" y1="94.2" x2="256.8" y2="235.9"/>
			<line style="&st6;" x1="333.7" y1="48.6" x2="333.7" y2="190.3"/>
		</g>
	</g>
	<g>
		<polygon style="opacity:0.7;fill:url(#XMLID_14_);" points="333.7,190.3 475.5,190.3 383.2,245 241.5,245 		"/>
		<g style="&st7;">
			<line style="&st6;" x1="333.7" y1="190.3" x2="475.5" y2="190.3"/>
			<line style="&st6;" x1="256.9" y1="235.9" x2="398.6" y2="235.9"/>
			<line style="&st6;" x1="272.2" y1="226.8" x2="413.9" y2="226.8"/>
			<line style="&st6;" x1="287.6" y1="217.7" x2="429.3" y2="217.7"/>
			<line style="&st6;" x1="303" y1="208.5" x2="444.7" y2="208.5"/>
			<line style="&st6;" x1="318.3" y1="199.4" x2="460" y2="199.4"/>
			<line style="&st6;" x1="451.9" y1="190.3" x2="359.6" y2="245"/>
			<line style="&st6;" x1="428.2" y1="190.3" x2="335.9" y2="245"/>
			<line style="&st6;" x1="404.6" y1="190.3" x2="312.3" y2="245"/>
			<line style="&st6;" x1="381" y1="190.3" x2="288.7" y2="245"/>
			<line style="&st6;" x1="357.3" y1="190.3" x2="265.1" y2="245"/>
			<line style="&st6;" x1="383.2" y1="245" x2="475.5" y2="190.3"/>
		</g>
	</g>
	<g>
		<g>
			<line style="&st9;" x1="241.5" y1="245" x2="353.1" y2="178.8"/>
			<path d="M356.7,173.8c-4,1-6.8,1.4-10.2,1.9l6.2,10.4c0.7-1,3.7-5,6.5-8c3-3.3,5.9-6,7.8-7.5C364.7,171.5,361,172.7,356.7,173.8z
				"/>
		</g>
	</g>
	<g>
		<radialGradient id="XMLID_17_" cx="286.748" cy="177.6294" r="204.8312" gradientUnits="userSpaceOnUse">
			<stop  offset="0" style="stop-color:#DEEEFF"/>
			<stop  offset="1" style="stop-color:#3374FF"/>
		</radialGradient>
		<rect x="241.5" y="103.3" style="opacity:0.7;fill:url(#XMLID_17_);" width="141.7" height="141.7"/>
		<g style="&st7;">
			<line style="&st6;" x1="241.5" y1="103.3" x2="383.2" y2="103.3"/>
			<line style="&st6;" x1="241.5" y1="221.4" x2="383.2" y2="221.4"/>
			<line style="&st6;" x1="241.5" y1="197.8" x2="383.2" y2="197.8"/>
			<line style="&st6;" x1="241.5" y1="174.2" x2="383.2" y2="174.2"/>
			<line style="&st6;" x1="241.5" y1="150.5" x2="383.2" y2="150.5"/>
			<line style="&st6;" x1="241.5" y1="127" x2="383.2" y2="127"/>
			<line style="&st6;" x1="359.6" y1="103.3" x2="359.6" y2="245"/>
			<line style="&st6;" x1="335.9" y1="103.3" x2="335.9" y2="245"/>
			<line style="&st6;" x1="312.3" y1="103.3" x2="312.3" y2="245"/>
			<line style="&st6;" x1="288.7" y1="103.3" x2="288.7" y2="245"/>
			<line style="&st6;" x1="265.1" y1="103.3" x2="265.1" y2="245"/>
			<line style="&st6;" x1="383.2" y1="103.3" x2="383.2" y2="245"/>
		</g>
	</g>
	<g>
		<rect x="99.7" y="103.3" style="opacity:0.7;fill:url(#XMLID_17_);" width="141.7" height="141.7"/>
		<g style="&st7;">
			<line style="&st6;" x1="99.7" y1="103.3" x2="241.5" y2="103.3"/>
			<line style="&st6;" x1="99.7" y1="221.4" x2="241.5" y2="221.4"/>
			<line style="&st6;" x1="99.7" y1="197.8" x2="241.5" y2="197.8"/>
			<line style="&st6;" x1="99.7" y1="174.2" x2="241.5" y2="174.2"/>
			<line style="&st6;" x1="99.7" y1="150.5" x2="241.5" y2="150.5"/>
			<line style="&st6;" x1="99.7" y1="127" x2="241.5" y2="127"/>
			<line style="&st6;" x1="99.7" y1="103.3" x2="99.7" y2="245"/>
			<line style="&st6;" x1="217.9" y1="103.3" x2="217.9" y2="245"/>
			<line style="&st6;" x1="194.2" y1="103.3" x2="194.2" y2="245"/>
			<line style="&st6;" x1="170.6" y1="103.3" x2="170.6" y2="245"/>
			<line style="&st6;" x1="147" y1="103.3" x2="147" y2="245"/>
			<line style="&st6;" x1="123.3" y1="103.3" x2="123.3" y2="245"/>
		</g>
	</g>
	<g>
		<rect x="99.7" y="245" style="opacity:0.7;fill:url(#XMLID_17_);" width="141.7" height="141.7"/>
		<g style="&st7;">
			<line style="&st6;" x1="99.7" y1="363.1" x2="241.5" y2="363.1"/>
			<line style="&st6;" x1="99.7" y1="339.6" x2="241.5" y2="339.6"/>
			<line style="&st6;" x1="99.7" y1="315.9" x2="241.5" y2="315.9"/>
			<line style="&st6;" x1="99.7" y1="292.2" x2="241.5" y2="292.2"/>
			<line style="&st6;" x1="99.7" y1="268.7" x2="241.5" y2="268.7"/>
			<line style="&st6;" x1="99.7" y1="386.8" x2="241.5" y2="386.8"/>
			<line style="&st6;" x1="99.7" y1="245" x2="99.7" y2="386.8"/>
			<line style="&st6;" x1="217.9" y1="245" x2="217.9" y2="386.8"/>
			<line style="&st6;" x1="194.2" y1="245" x2="194.2" y2="386.8"/>
			<line style="&st6;" x1="170.6" y1="245" x2="170.6" y2="386.8"/>
			<line style="&st6;" x1="147" y1="245" x2="147" y2="386.8"/>
			<line style="&st6;" x1="123.3" y1="245" x2="123.3" y2="386.8"/>
		</g>
	</g>
	<g>
		<polygon style="opacity:0.7;fill:url(#XMLID_14_);" points="99.7,245 241.5,245 149.2,299.8 7.5,299.8 		"/>
		<g style="&st7;">
			<line style="&st6;" x1="22.9" y1="290.6" x2="164.6" y2="290.6"/>
			<line style="&st6;" x1="38.2" y1="281.5" x2="180" y2="281.5"/>
			<line style="&st6;" x1="53.6" y1="272.4" x2="195.4" y2="272.4"/>
			<line style="&st6;" x1="69" y1="263.3" x2="210.8" y2="263.3"/>
			<line style="&st6;" x1="84.3" y1="254.2" x2="226.1" y2="254.2"/>
			<line style="&st6;" x1="7.5" y1="299.8" x2="149.2" y2="299.8"/>
			<line style="&st6;" x1="99.7" y1="245" x2="7.5" y2="299.8"/>
			<line style="&st6;" x1="217.9" y1="245" x2="125.6" y2="299.8"/>
			<line style="&st6;" x1="194.2" y1="245" x2="102" y2="299.8"/>
			<line style="&st6;" x1="170.6" y1="245" x2="78.4" y2="299.8"/>
			<line style="&st6;" x1="147" y1="245" x2="54.8" y2="299.8"/>
			<line style="&st6;" x1="123.3" y1="245" x2="31.1" y2="299.8"/>
		</g>
	</g>
	<g>
		<rect x="241.5" y="245" style="opacity:0.7;fill:url(#XMLID_17_);" width="141.7" height="141.7"/>
		<g style="&st7;">
			<line style="&st6;" x1="241.5" y1="363.1" x2="383.2" y2="363.1"/>
			<line style="&st6;" x1="241.5" y1="339.6" x2="383.2" y2="339.6"/>
			<line style="&st6;" x1="241.5" y1="315.9" x2="383.2" y2="315.9"/>
			<line style="&st6;" x1="241.5" y1="292.2" x2="383.2" y2="292.2"/>
			<line style="&st6;" x1="241.5" y1="268.7" x2="383.2" y2="268.7"/>
			<line style="&st6;" x1="241.5" y1="386.8" x2="383.2" y2="386.8"/>
			<line style="&st6;" x1="359.6" y1="245" x2="359.6" y2="386.8"/>
			<line style="&st6;" x1="335.9" y1="245" x2="335.9" y2="386.8"/>
			<line style="&st6;" x1="312.3" y1="245" x2="312.3" y2="386.8"/>
			<line style="&st6;" x1="288.7" y1="245" x2="288.7" y2="386.8"/>
			<line style="&st6;" x1="265.1" y1="245" x2="265.1" y2="386.8"/>
			<line style="&st6;" x1="383.2" y1="245" x2="383.2" y2="386.8"/>
		</g>
	</g>
	<g>
		<g>
			<line style="&st9;" x1="241.5" y1="245" x2="77.2" y2="245"/>
			<path d="M71.5,247.5c4,1.2,6.5,2.3,9.7,3.6V239c-1.1,0.5-5.8,2.4-9.7,3.6c-4.2,1.3-8.1,2.2-10.6,2.5
				C63.4,245.3,67.3,246.2,71.5,247.5z"/>
		</g>
	</g>
	<g>
		
			<radialGradient id="XMLID_22_" cx="244.3027" cy="214.1768" r="149.9765" gradientTransform="matrix(1.6296 -0.3743 0 1 -174.1228 92.9134)" gradientUnits="userSpaceOnUse">
			<stop  offset="0" style="stop-color:#F4FFF3"/>
			<stop  offset="1" style="stop-color:#5EBF53"/>
		</radialGradient>
		<polygon style="opacity:0.7;fill:url(#XMLID_22_);" points="149.2,158 241.5,103.3 241.5,245 149.2,299.7 		"/>
		<g style="&st7;">
			<line style="&st6;" x1="149.2" y1="158" x2="241.5" y2="103.3"/>
			<line style="&st6;" x1="149.2" y1="276" x2="241.5" y2="221.4"/>
			<line style="&st6;" x1="149.2" y1="252.5" x2="241.5" y2="197.8"/>
			<line style="&st6;" x1="149.2" y1="228.8" x2="241.5" y2="174.2"/>
			<line style="&st6;" x1="149.2" y1="205.2" x2="241.5" y2="150.5"/>
			<line style="&st6;" x1="149.2" y1="181.6" x2="241.5" y2="127"/>
			<line style="&st6;" x1="149.2" y1="158" x2="149.2" y2="299.7"/>
			<line style="&st6;" x1="226.1" y1="112.4" x2="226.1" y2="254.1"/>
			<line style="&st6;" x1="210.7" y1="121.5" x2="210.7" y2="263.3"/>
			<line style="&st6;" x1="195.4" y1="130.6" x2="195.4" y2="272.4"/>
			<line style="&st6;" x1="180" y1="139.7" x2="180" y2="281.5"/>
			<line style="&st6;" x1="164.6" y1="148.9" x2="164.6" y2="290.6"/>
		</g>
	</g>
	<g>
		
			<radialGradient id="XMLID_23_" cx="244.3027" cy="214.1777" r="149.9758" gradientTransform="matrix(1.6296 -0.3743 0 1 -174.1228 92.9134)" gradientUnits="userSpaceOnUse">
			<stop  offset="0" style="stop-color:#F4FFF3"/>
			<stop  offset="1" style="stop-color:#5EBF53"/>
		</radialGradient>
		<polygon style="opacity:0.7;fill:url(#XMLID_23_);" points="149.2,299.7 241.5,245 241.5,386.8 149.2,441.4 		"/>
		<g style="&st7;">
			<line style="&st6;" x1="149.2" y1="417.8" x2="241.5" y2="363.1"/>
			<line style="&st6;" x1="149.2" y1="394.2" x2="241.5" y2="339.6"/>
			<line style="&st6;" x1="149.2" y1="370.6" x2="241.5" y2="315.9"/>
			<line style="&st6;" x1="149.2" y1="346.9" x2="241.5" y2="292.2"/>
			<line style="&st6;" x1="149.2" y1="323.4" x2="241.5" y2="268.7"/>
			<line style="&st6;" x1="149.2" y1="441.4" x2="241.5" y2="386.8"/>
			<line style="&st6;" x1="149.2" y1="299.7" x2="149.2" y2="441.4"/>
			<line style="&st6;" x1="226.1" y1="254.1" x2="226.1" y2="395.9"/>
			<line style="&st6;" x1="210.7" y1="263.3" x2="210.7" y2="405"/>
			<line style="&st6;" x1="195.4" y1="272.4" x2="195.4" y2="414.1"/>
			<line style="&st6;" x1="180" y1="281.5" x2="180" y2="423.2"/>
			<line style="&st6;" x1="164.6" y1="290.6" x2="164.6" y2="432.3"/>
		</g>
	</g>
	<g>
		<g>
			<line style="&st9;" x1="241.5" y1="245" x2="241.5" y2="409.8"/>
			<path d="M243.9,415.4c1.2-4,2.3-6.5,3.6-9.7h-12.1c0.5,1.1,2.4,5.8,3.6,9.7c1.3,4.2,2.2,8.1,2.5,10.6
				C241.8,423.5,242.7,419.7,243.9,415.4z"/>
		</g>
	</g>
	<g>
		<polygon style="opacity:0.7;fill:url(#XMLID_14_);" points="241.5,245 383.2,245 291,299.8 149.2,299.8 		"/>
		<g style="&st7;">
			<line style="&st6;" x1="164.6" y1="290.6" x2="306.4" y2="290.6"/>
			<line style="&st6;" x1="180" y1="281.5" x2="321.7" y2="281.5"/>
			<line style="&st6;" x1="195.4" y1="272.4" x2="337.1" y2="272.4"/>
			<line style="&st6;" x1="210.8" y1="263.3" x2="352.5" y2="263.3"/>
			<line style="&st6;" x1="226.1" y1="254.2" x2="367.8" y2="254.2"/>
			<line style="&st6;" x1="149.2" y1="299.8" x2="291" y2="299.8"/>
			<line style="&st6;" x1="359.6" y1="245" x2="267.4" y2="299.8"/>
			<line style="&st6;" x1="335.9" y1="245" x2="243.7" y2="299.8"/>
			<line style="&st6;" x1="312.3" y1="245" x2="220.1" y2="299.8"/>
			<line style="&st6;" x1="288.7" y1="245" x2="196.5" y2="299.8"/>
			<line style="&st6;" x1="265.1" y1="245" x2="172.8" y2="299.8"/>
			<line style="&st6;" x1="291" y1="299.8" x2="383.2" y2="245"/>
		</g>
	</g>
	<g>
		<g>
			<line style="&st9;" x1="241.5" y1="245" x2="241.5" y2="80.3"/>
			<path d="M239,74.6c-1.2,4-2.3,6.5-3.6,9.7h12.1c-0.5-1.1-2.4-5.8-3.6-9.7c-1.3-4.2-2.2-8.1-2.5-10.6
				C241.2,66.5,240.3,70.4,239,74.6z"/>
		</g>
	</g>
	<g>
		<g>
			<line style="&st9;" x1="241.5" y1="245" x2="405.7" y2="245"/>
			<path d="M411.4,242.6c-4-1.2-6.5-2.3-9.7-3.6v12.1c1.1-0.5,5.8-2.4,9.7-3.6c4.2-1.3,8.1-2.2,10.6-2.5
				C419.5,244.7,415.7,243.9,411.4,242.6z"/>
		</g>
	</g>
	<g>
		<g>
			<line style="&st9;" x1="241.5" y1="245" x2="129.9" y2="311.2"/>
			<path d="M126.3,316.2c4-1,6.8-1.4,10.2-1.9l-6.2-10.4c-0.7,1-3.7,5-6.5,8c-3,3.3-5.9,6-7.8,7.5
				C118.2,318.5,122,317.3,126.3,316.2z"/>
		</g>
	</g>
	<text transform="matrix(1 0 0 1 437.4248 255.2959)" style="&st11; &st10;">x</text>
	<text transform="matrix(1 0 0 1 233.4912 50.2939)" style="&st11; &st10;">y</text>
	<text transform="matrix(1 0 0 1 82.4092 337.2959)" style="&st11; &st10;">z</text>
</g>
<rect style="&st8;" width="487.4" height="487.4"/>
</svg>
